<svg xmlns="http://www.w3.org/2000/svg" width="45" height="44" viewBox="0 0 45 44">
  <g id="그룹_13022" data-name="그룹 13022" transform="translate(0.353 0.003)">
    <rect id="사각형_256" data-name="사각형 256" width="45" height="44" transform="translate(-0.353 -0.002)" fill="none"/>
    <g id="그룹_13021" data-name="그룹 13021" transform="translate(7.966 2.337)">
      <g id="타원_156" data-name="타원 156" transform="translate(7.681 -0.339)" fill="none" stroke="#73a2fc" stroke-width="2">
        <ellipse cx="7.5" cy="8" rx="7.5" ry="8" stroke="none"/>
        <ellipse cx="7.5" cy="8" rx="6.5" ry="7" fill="none"/>
      </g>
      <g id="패스_36" data-name="패스 36" transform="translate(0 17.515)" fill="none">
        <path d="M14.433,0C22.4,0,28.866,5.088,28.866,15.716S0,26.344,0,15.716,6.462,0,14.433,0Z" stroke="none"/>
        <path d="M 14.43279647827148 2 C 10.84098625183105 2 7.7999267578125 3.137540817260742 5.638385772705078 5.289649963378906 C 4.503276824951172 6.4197998046875 3.618846893310547 7.826671600341797 3.00965690612793 9.471179962158203 C 2.339696884155273 11.27972030639648 1.999996185302734 13.38068103790283 1.999996185302734 15.71571063995361 C 1.999996185302734 17.3864803314209 3.141096115112305 18.79382133483887 5.391607284545898 19.89863967895508 C 7.70634651184082 21.03499031066895 11.00173568725586 21.68672180175781 14.43279647827148 21.68672180175781 C 17.86385726928711 21.68672180175781 21.15924644470215 21.03499031066895 23.4739875793457 19.89863967895508 C 25.72449684143066 18.79382133483887 26.86559677124023 17.3864803314209 26.86559677124023 15.71571063995361 C 26.86559677124023 13.38068103790283 26.5258960723877 11.27972030639648 25.85593605041504 9.471179962158203 C 25.24674606323242 7.826671600341797 24.3623161315918 6.4197998046875 23.22720718383789 5.289649963378906 C 21.06566619873047 3.137540817260742 18.02460670471191 2 14.43279647827148 2 M 14.43279647827148 0 C 22.40380668640137 0 28.86559677124023 5.087690353393555 28.86559677124023 15.71571063995361 C 28.86559677124023 21.02971649169922 21.64919662475586 23.68671798706055 14.43279647827148 23.68671798706055 C 7.216396331787109 23.68671798706055 -3.814697265625e-06 21.02971649169922 -3.814697265625e-06 15.71571063995361 C -3.814697265625e-06 5.087690353393555 6.461786270141602 0 14.43279647827148 0 Z" stroke="none" fill="#73a2fc"/>
      </g>
    </g>
  </g>
</svg>
