<svg xmlns="http://www.w3.org/2000/svg" xmlns:xlink="http://www.w3.org/1999/xlink" width="37.518" height="59.872" viewBox="0 0 37.518 59.872">
  <defs>
    <filter id="패스_8850" x="0" y="0" width="37.518" height="59.872" filterUnits="userSpaceOnUse">
      <feOffset input="SourceAlpha"/>
      <feGaussianBlur stdDeviation="1.5" result="blur"/>
      <feFlood flood-opacity="0.161"/>
      <feComposite operator="in" in2="blur"/>
      <feComposite in="SourceGraphic"/>
    </filter>
    <filter id="패스_8851" x="11.039" y="13.319" width="15.769" height="16.172" filterUnits="userSpaceOnUse">
      <feOffset input="SourceAlpha"/>
      <feGaussianBlur stdDeviation="1.5" result="blur-2"/>
      <feFlood flood-opacity="0.161"/>
      <feComposite operator="in" in2="blur-2"/>
      <feComposite in="SourceGraphic"/>
    </filter>
  </defs>
  <g id="그룹_13278" data-name="그룹 13278" transform="translate(5 5.056)">
    <g transform="matrix(1, 0, 0, 1, -5, -5.06)" filter="url(#패스_8850)">
      <path id="패스_8850-2" data-name="패스 8850" d="M-163.415,70.4l-11.914-8.78a1.72,1.72,0,0,0-2.063.017l-12.165,9.281a1.719,1.719,0,0,0-.676,1.367v15.05a1.719,1.719,0,0,0,1.719,1.719,1.719,1.719,0,0,0,1.719-1.719v-14.2l10.464-7.983,10.178,7.5V85.618h-5.879a1.719,1.719,0,0,0-1.719,1.719V94.6H-179.4a1.719,1.719,0,0,0-1.719,1.719,1.719,1.719,0,0,0,1.719,1.719h5.649v4.086H-179.4a1.719,1.719,0,0,0-1.719,1.719,1.719,1.719,0,0,0,1.719,1.719h5.649v3.825a1.719,1.719,0,0,0,1.719,1.719,1.719,1.719,0,0,0,1.719-1.719V89.057h5.879a1.719,1.719,0,0,0,1.719-1.719V71.786A1.718,1.718,0,0,0-163.415,70.4Z" transform="translate(195.23 -56.23)" fill="#fff" stroke="#fff" stroke-width="1"/>
    </g>
    <g transform="matrix(1, 0, 0, 1, -5, -5.06)" filter="url(#패스_8851)">
      <path id="패스_8851-2" data-name="패스 8851" d="M-161.992,91.173a2.884,2.884,0,0,0-2.884-2.884,2.885,2.885,0,0,0-2.885,2.884v3.288h5.769Z" transform="translate(183.8 -69.97)" fill="#fff" stroke="#fff" stroke-width="1"/>
    </g>
  </g>
</svg>
