<svg xmlns="http://www.w3.org/2000/svg" width="77" height="56" viewBox="0 0 77 56">
  <g id="그룹_13000" data-name="그룹 13000" transform="translate(0.466 0.189)">
    <g id="빼기_8" data-name="빼기 8" transform="translate(6.534 7.811)" fill="#fff">
      <path d="M 31.50004959106445 47 C 27.38191032409668 47 23.38796043395996 46.19252014160156 19.62914085388184 44.59997940063477 C 15.99789047241211 43.06280136108398 12.7360897064209 40.86043930053711 9.934080123901367 38.05395889282227 C 7.132090091705322 35.24845886230469 4.932650089263916 31.98228073120117 3.396729946136475 28.34601020812988 C 1.806380033493042 24.58064079284668 1 20.58077049255371 1 16.45751953125 C 1 11.00311660766602 2.446503400802612 5.671144485473633 5.18833589553833 1 L 57.81199645996094 1 C 60.55362319946289 5.671181201934814 62 11.00313568115234 62 16.45751953125 C 62 20.58160972595215 61.19369888305664 24.58147048950195 59.60350036621094 28.34598922729492 C 58.06764984130859 31.98232078552246 55.86832809448242 35.24850845336914 53.06661987304688 38.05384826660156 C 50.26469039916992 40.86038970947266 47.0029411315918 43.06275177001953 43.37182998657227 44.59986114501953 C 39.61272048950195 46.19252014160156 35.61856842041016 47 31.50004959106445 47 Z" stroke="none"/>
      <path d="M 31.50004959106445 46 C 35.48379898071289 46 39.34669876098633 45.21916961669922 42.98199844360352 43.67898178100586 C 46.49375915527344 42.19237899780273 49.6485710144043 40.06214904785156 52.35905838012695 37.34720993041992 C 55.06933975219727 34.63339996337891 57.19678115844727 31.47406005859375 58.68231964111328 27.95685958862305 C 60.22021865844727 24.3161506652832 61 20.44721031188965 61 16.45751953125 C 61 11.37249279022217 59.70078277587891 6.398053169250488 57.23299407958984 2 L 5.767319679260254 2 C 3.299346923828125 6.398009300231934 2 11.372483253479 2 16.45751953125 C 2 20.44639015197754 2.77987003326416 24.31534957885742 4.317930221557617 27.9569091796875 C 5.803510189056396 31.47400093078613 7.931059837341309 34.63333892822266 10.64175033569336 37.34741973876953 C 13.35219955444336 40.06219100952148 16.50705909729004 42.19244003295898 20.01925086975098 43.6792106628418 C 23.65398025512695 45.21916961669922 27.51667976379395 46 31.50004959106445 46 M 31.50004959106445 48 C 27.24691963195801 48 23.12173080444336 47.165771484375 19.2390308380127 45.52074813842773 C 15.48797988891602 43.932861328125 12.11925029754639 41.657958984375 9.226409912109375 38.76050186157227 C 6.333300113677979 35.86376953125 4.061970233917236 32.49097061157227 2.475539922714233 28.73510932922363 C 0.8328999876976013 24.84594917297363 -3.552713678800501e-15 20.71508979797363 -3.552713678800501e-15 16.45751953125 C -3.552713678800501e-15 10.63183975219727 1.59824001789093 4.940919876098633 4.621900081634521 -3.552713678800501e-15 L 58.37845993041992 -3.552713678800501e-15 C 61.40230941772461 4.941649913787842 63 10.63183975219727 63 16.45751953125 C 63 20.7158203125 62.16722869873047 24.8466796875 60.52468872070313 28.73510932922363 C 58.93835067749023 32.49097061157227 56.66716003417969 35.86376953125 53.77418899536133 38.76050186157227 C 50.88148880004883 41.657958984375 47.51271057128906 43.932861328125 43.76166152954102 45.52074813842773 C 39.87894821166992 47.165771484375 35.75349044799805 48 31.50004959106445 48 Z" stroke="none" fill="#73a2fc"/>
    </g>
    <g id="사각형_233" data-name="사각형 233" transform="translate(6.534 5.811)" fill="#fff" stroke="#73a2fc" stroke-width="2">
      <rect width="63" height="18" stroke="none"/>
      <rect x="1" y="1" width="61" height="16" fill="none"/>
    </g>
    <g id="사각형_232" data-name="사각형 232" transform="translate(-0.466 -0.189)" fill="#fff" stroke="#73a2fc" stroke-width="2">
      <path d="M4,0H73a4,4,0,0,1,4,4V17a1,1,0,0,1-1,1H1a1,1,0,0,1-1-1V4A4,4,0,0,1,4,0Z" stroke="none"/>
      <path d="M4,1H73a3,3,0,0,1,3,3V17a0,0,0,0,1,0,0H1a0,0,0,0,1,0,0V4A3,3,0,0,1,4,1Z" fill="none"/>
    </g>
    <g id="패스_8847" data-name="패스 8847" transform="translate(28.534 29.811)" fill="#fff">
      <path d="M 10 19.29999923706055 C 4.871960163116455 19.29999923706055 0.699999988079071 15.1280403137207 0.699999988079071 10 C 0.699999988079071 4.871960163116455 4.871960163116455 0.699999988079071 10 0.699999988079071 C 15.1280403137207 0.699999988079071 19.29999923706055 4.871960163116455 19.29999923706055 10 C 19.29999923706055 15.1280403137207 15.1280403137207 19.29999923706055 10 19.29999923706055 Z" stroke="none"/>
      <path d="M 10 1.399999618530273 C 5.257940292358398 1.399999618530273 1.399999618530273 5.257940292358398 1.399999618530273 10 C 1.399999618530273 14.7420597076416 5.257940292358398 18.60000038146973 10 18.60000038146973 C 14.7420597076416 18.60000038146973 18.60000038146973 14.7420597076416 18.60000038146973 10 C 18.60000038146973 5.257940292358398 14.7420597076416 1.399999618530273 10 1.399999618530273 M 10 0 C 15.52285003662109 0 20 4.477149963378906 20 10 C 20 15.52285003662109 15.52285003662109 20 10 20 C 4.477149963378906 20 0 15.52285003662109 0 10 C 0 4.477149963378906 4.477149963378906 0 10 0 Z" stroke="none" fill="#73a2fc"/>
    </g>
    <circle id="타원_147" data-name="타원 147" cx="5" cy="5" r="5" transform="translate(33.534 34.811)" fill="#ffd939"/>
    <circle id="타원_148" data-name="타원 148" cx="2" cy="2" r="2" transform="translate(49.534 28.811)" fill="#ffd939"/>
  </g>
</svg>
