<svg id="그룹_13279" data-name="그룹 13279" xmlns="http://www.w3.org/2000/svg" width="129.741" height="26.948" viewBox="0 0 129.741 26.948">
  <path id="패스_9018" data-name="패스 9018" d="M999.207,302.972a2.5,2.5,0,0,0-.733,1.826v8.338H985.621V304.8a2.532,2.532,0,0,0-.708-1.817,2.581,2.581,0,0,0-3.581-.01,2.5,2.5,0,0,0-.733,1.827V326.53a2.518,2.518,0,0,0,.722,1.8,2.54,2.54,0,0,0,3.6-.011,2.55,2.55,0,0,0,.7-1.789v-8.691h12.854v8.691a2.519,2.519,0,0,0,.722,1.8,2.45,2.45,0,0,0,1.789.744,2.425,2.425,0,0,0,1.773-.727,2.53,2.53,0,0,0,.706-1.817V304.8a2.53,2.53,0,0,0-.707-1.817A2.577,2.577,0,0,0,999.207,302.972Z" transform="translate(-980.599 -302.254)" fill="#fff"/>
  <path id="패스_9019" data-name="패스 9019" d="M1023.238,311.958a9.629,9.629,0,0,0-4.891-1.258,9.77,9.77,0,0,0-4.936,1.256,8.862,8.862,0,0,0-3.416,3.5,11.054,11.054,0,0,0,0,10.05,8.871,8.871,0,0,0,3.416,3.5,10.305,10.305,0,0,0,9.859,0,8.919,8.919,0,0,0,3.4-3.5,10.989,10.989,0,0,0-.018-10.054A9.009,9.009,0,0,0,1023.238,311.958Zm-4.891,13.668a4.572,4.572,0,0,1-2.428-.643,4.489,4.489,0,0,1-1.678-1.8,5.668,5.668,0,0,1-.623-2.687,5.778,5.778,0,0,1,.624-2.707,4.472,4.472,0,0,1,1.676-1.809,4.9,4.9,0,0,1,4.855,0,4.368,4.368,0,0,1,1.658,1.8,5.9,5.9,0,0,1,.611,2.714,5.78,5.78,0,0,1-.61,2.694,4.385,4.385,0,0,1-1.659,1.79A4.562,4.562,0,0,1,1018.346,325.626Z" transform="translate(-984.145 -303.316)" fill="#fff"/>
  <path id="패스_9020" data-name="패스 9020" d="M1056.329,312.774a6.6,6.6,0,0,0-5.065-2.111,8.122,8.122,0,0,0-3.522.759,7.627,7.627,0,0,0-1.936,1.311,6.406,6.406,0,0,0-1.741-1.315,7.087,7.087,0,0,0-3.281-.755,7.3,7.3,0,0,0-2.789.531,6.877,6.877,0,0,0-1.217.647,2.366,2.366,0,0,0-.26-.3,2.605,2.605,0,0,0-3.507.018,2.47,2.47,0,0,0-.717,1.81v14.285a2.481,2.481,0,0,0,.706,1.783,2.539,2.539,0,0,0,3.573-.011,2.521,2.521,0,0,0,.68-1.771V318.6a3.338,3.338,0,0,1,.825-2.364,2.658,2.658,0,0,1,2.076-.871,2.511,2.511,0,0,1,1.931.74,3.357,3.357,0,0,1,.719,2.367v9.181a2.487,2.487,0,0,0,.706,1.783,2.539,2.539,0,0,0,3.572-.01,2.521,2.521,0,0,0,.68-1.772V318.6a3.337,3.337,0,0,1,.826-2.364,2.622,2.622,0,0,1,2.045-.871,2.512,2.512,0,0,1,1.931.74,3.357,3.357,0,0,1,.72,2.367v9.181a2.489,2.489,0,0,0,.7,1.783,2.54,2.54,0,0,0,3.573-.01,2.521,2.521,0,0,0,.681-1.772v-9.181a8.129,8.129,0,0,0-1.915-5.7Z" transform="translate(-987.102 -303.312)" fill="#fff"/>
  <path id="패스_9021" data-name="패스 9021" d="M1077.27,311.922a8.693,8.693,0,0,0-4.646-1.222,9.385,9.385,0,0,0-4.833,1.261,8.82,8.82,0,0,0-3.35,3.52,10.548,10.548,0,0,0-1.188,5.017,10.025,10.025,0,0,0,1.262,5.022,9.075,9.075,0,0,0,3.529,3.493,10.315,10.315,0,0,0,8.372.657,9.514,9.514,0,0,0,2.907-1.545,2.036,2.036,0,0,0,.845-1.658,2.238,2.238,0,0,0-.847-1.734,2.188,2.188,0,0,0-1.537-.552,2.463,2.463,0,0,0-1.575.537,4.962,4.962,0,0,1-1.432.731,5.405,5.405,0,0,1-5.166-.872,4.648,4.648,0,0,1-1.449-2.082h10.848a2.3,2.3,0,0,0,1.651-.651,2.237,2.237,0,0,0,.671-1.636,11.125,11.125,0,0,0-1.031-4.874A8.049,8.049,0,0,0,1077.27,311.922Zm-.775,6.258h-8.282a4.571,4.571,0,0,1,1.265-1.91,4.5,4.5,0,0,1,3.146-1.061,3.7,3.7,0,0,1,2.75,1.03A4.4,4.4,0,0,1,1076.495,318.18Z" transform="translate(-990.996 -303.316)" fill="#fff"/>
  <path id="패스_9022" data-name="패스 9022" d="M1104.753,303.952a2.4,2.4,0,0,0-2.364-1.7,2.474,2.474,0,0,0-2.35,1.665l-8.853,21.564a2.955,2.955,0,0,0-.213,1.046,2.563,2.563,0,0,0,.685,1.762,2.452,2.452,0,0,0,3.159.363,2.66,2.66,0,0,0,.957-1.158l1.575-3.944h10.11l1.545,3.94a2.4,2.4,0,0,0,.953,1.169,2.51,2.51,0,0,0,1.372.413,2.451,2.451,0,0,0,1.79-.745,2.48,2.48,0,0,0,.721-1.767,2.931,2.931,0,0,0-.224-1.039Zm.916,15.092h-6.518l3.293-8.19Z" transform="translate(-994.483 -302.254)" fill="#fff"/>
  <path id="패스_9023" data-name="패스 9023" d="M1126.581,325.141l0,0a2.1,2.1,0,0,0-1.617-.747h-1.071a1.23,1.23,0,0,1-1.016-.538,2.477,2.477,0,0,1-.5-1.606v-7.055h1.8a2.388,2.388,0,0,0,1.671-.623,2.15,2.15,0,0,0,.683-1.6,2.226,2.226,0,0,0-.685-1.665,2.383,2.383,0,0,0-1.668-.622h-1.8v-3.748a2.464,2.464,0,0,0-.692-1.769,2.525,2.525,0,0,0-3.514,0,2.471,2.471,0,0,0-.691,1.769v3.748h-.573a2.383,2.383,0,0,0-1.671.623,2.224,2.224,0,0,0-.683,1.664,2.147,2.147,0,0,0,.684,1.6,2.383,2.383,0,0,0,1.67.622h.573v7.055a7.756,7.756,0,0,0,.821,3.576,6.541,6.541,0,0,0,2.3,2.568,5.988,5.988,0,0,0,3.288.957h.568a2.83,2.83,0,0,0,1.91-.663,2.334,2.334,0,0,0,.821-1.817A2.556,2.556,0,0,0,1126.581,325.141Z" transform="translate(-997.449 -302.531)" fill="#fff"/>
</svg>
